# xmcd
#
# Track frame offsets:
#	150
#	13088
#	24340
#	37900
#	53885
#	71765
#	85990
#	100153
#	110935
#	125575
#	143540
#	156778
#	167898
#	186285
#
# Disc length: 2673
#
# Revision: 1
# Processed by: cddbd v1.5.1PL0 Copyright (c) Steve Scherf et al.
# Submitted via: VisiTrax 2.9.5.180 - For more info visit www.synapsa.com
# Normalized: r0:DSETVAR1
#
DISCID=bd0a6f0e
DTITLE=Various Artist - Mr Music Country 04-91
DYEAR=1991
DGENRE=Country
TTITLE0=Larry Boone - Down That River Road
TTITLE1=The Kentucky Headhunters - The Ballad Of Davy Crocket
TTITLE2=Wanda Jackson - If I Could Take Sweden Home
TTITLE3=William Lee Golden - Man Of 87
TTITLE4=Tish Hinojosa - West Side Of Town
TTITLE5=The Statler Brothers - Holding On
TTITLE6=The Burch Sisters - Everytime You Go Outside I Hope It Rains
TTITLE7=Ronna Reeves - Sadly Mistaken
TTITLE8=Johnny Cash - Goin' By The Book
TTITLE9=Donna Meade - When He Leaves You
TTITLE10=Jerry Jeff Walker - Navajo Rug
TTITLE11=Inger Nordström 'N' Her Rhinstone band - Falling Fast
TTITLE12=David Lynn Jones - When Times Were Good
TTITLE13=Thomas Haglund - Cajun Rock
EXTD=
EXTT0=
EXTT1=
EXTT2=
EXTT3=
EXTT4=
EXTT5=
EXTT6=
EXTT7=
EXTT8=
EXTT9=
EXTT10=
EXTT11=
EXTT12=
EXTT13=
PLAYORDER=
